<?xml version="1.0" encoding="UTF-8" standalone="no"?>
<svg
   version="1.1"
   width="144.44485"
   height="144.44485"
   id="svg149"
   xmlns="http://www.w3.org/2000/svg"
   xmlns:svg="http://www.w3.org/2000/svg">
  <defs
     id="defs149" />
  <rect
     style="fill:#04045e;fill-opacity:1;stroke:none;stroke-width:1.51559;stroke-opacity:1"
     id="rect168"
     width="144.44485"
     height="144.44485"
     x="0"
     y="0"
     ry="31.762356" />
  <path
     id="path163"
     style="fill:#b9fa3c;fill-opacity:1;stroke:none;stroke-width:0.229235;stroke-dasharray:none;stroke-opacity:1"
     d="m 95.300372,30.120579 a 22.904781,22.904781 0 0 0 -11.15806,3.70442 l -0.40831,0.26389 a 26.025225,26.025225 0 0 0 -11.76549,21.85309 26.553531,26.553531 0 0 0 -11.78048,-21.93774 22.689471,22.689471 0 0 0 -31.42285,6.17903 l -0.51285,0.75681 a 27.31188,27.31188 0 0 0 -3.57994,22.8987 h 22.98833 l 7.90176,-11.85016 1.98167,19.70215 1.15016,-7.85199 h 16.94375 13.44844 l 6.53253,-13.0103 4.904368,13.0103 h 19.24905 a 27.31188,27.31188 0 0 0 -3.57997,-22.8987 l -0.51279,-0.75681 A 22.904781,22.904781 0 0 0 95.300372,30.120579 Z m -0.1843,28.86858 -3.64966,7.25948 h -15.8284 -13.60281 l -2.93267,20.03576 -3.83389,-0.0947 -2.47456,-24.54679 -3.06213,4.60066 h -23.6107 a 27.31188,27.31188 0 0 0 5.54666,7.89678 l 40.55443,40.225841 40.559448,-40.225841 a 27.31188,27.31188 0 0 0 5.54171,-7.89181 H 97.849582 Z" />
  <path
     id="rect149"
     style="fill:#b9fa3c;fill-opacity:1;stroke:#04045e;stroke-width:1.166;stroke-dasharray:none;stroke-opacity:1"
     d="m 95.899592,68.949489 c -6.79792,-0.07 -12.32225,5.84849 -12.38639,13.27026 l -0.0756,8.73824 c 0.0658,-0.007 0.13269,-0.01 0.20031,-0.009 l 24.140788,0.24875 c 0.0676,6.4e-4 0.13445,0.005 0.20011,0.0132 l 0.0756,-8.73823 c 0.0642,-7.42179 -5.3569,-13.4531 -12.154818,-13.52315 z m -12.46847,22.76482 -0.0202,2.33237 24.541228,0.25287 0.0202,-2.33235 z m -0.0285,3.29982 -0.0756,8.738241 c -0.0641,7.42178 5.35691,13.45311 12.15482,13.52315 6.797928,0.07 12.322248,-5.84848 12.386388,-13.27026 l 0.0756,-8.738251 c -0.0658,0.007 -0.1327,0.01 -0.20031,0.009 l -24.140788,-0.24875 c -0.0676,-6.5e-4 -0.13446,-0.005 -0.20011,-0.0132 z" />
</svg>
